<svg width="22" height="21" viewBox="0 0 22 21" fill="none" xmlns="http://www.w3.org/2000/svg">
<path d="M11.5622 21C9.78725 21 8.06274 20.5543 6.51976 19.6932L2.61693 20.8683C1.83031 21.1013 0.983165 20.848 0.458753 20.2098C-0.0656586 19.5716 -0.146329 18.6802 0.24698 17.9508L1.98157 14.699C1.39665 13.3719 1.1042 11.9638 1.1042 10.4949C1.1042 4.70043 5.79364 0 11.5521 0C17.3105 0 22 4.71056 22 10.4949C22 16.2793 17.3105 20.9899 11.5521 20.9899L11.5622 21ZM6.83238 17.1708L7.27612 17.4443C8.55689 18.2446 10.0394 18.67 11.5622 18.67C16.0499 18.67 19.6906 15.0029 19.6906 10.5051C19.6906 6.00724 16.0399 2.34009 11.5622 2.34009C7.08451 2.34009 3.4338 6.00724 3.4338 10.5051C3.4338 11.8119 3.73635 13.0579 4.32127 14.2127L4.59355 14.7598L2.61693 18.4472L6.83238 17.1708Z" fill="#231F20"/>
</svg>
