<svg width="21" height="22" viewBox="0 0 21 22" fill="none" xmlns="http://www.w3.org/2000/svg">
<path d="M20.5492 9.28394L13.4502 1.31615C12.7062 0.47584 11.6212 0 10.4948 0C9.3685 0 8.2835 0.47584 7.53949 1.31615L0.440481 9.28394C-0.0245202 9.8104 -0.127854 10.5191 0.16148 11.1569C0.399147 11.6733 0.853815 12.0175 1.39115 12.139V18.0313C1.39115 20.9167 2.67249 22 5.61749 22H15.1758C18.1208 22 19.6089 20.9268 19.6089 18.0313V12.139C20.1462 12.0175 20.6009 11.6733 20.8385 11.1569C21.1279 10.5292 21.0245 9.8104 20.5595 9.28394H20.5492ZM9.32716 2.84491C9.62683 2.51081 10.0402 2.32858 10.4948 2.32858C10.9495 2.32858 11.3628 2.51081 11.6625 2.84491L17.9038 9.8509H3.08582L9.32716 2.84491ZM17.2218 18.0313C17.2218 19.641 16.8085 19.6714 15.1655 19.6714H5.61749C3.97449 19.6714 3.76782 19.641 3.76782 18.0313V12.1795H17.2218V18.0313Z" fill="black"/>
</svg>
