<svg width="27" height="27" viewBox="0 0 27 27" fill="none" xmlns="http://www.w3.org/2000/svg">
<path d="M26.4771 23.9846L21.0701 18.6154C22.542 16.6615 23.425 14.2462 23.425 11.6308C23.425 5.21539 18.173 0 11.7125 0C5.25204 0 0 5.21539 0 11.6308C0 18.0462 5.25204 23.2615 11.7125 23.2615C14.2533 23.2615 16.6082 22.4462 18.5293 21.0769L23.9673 26.4769C24.3081 26.8154 24.7729 27 25.2222 27C25.6715 27 26.1363 26.8308 26.4771 26.4769C27.1743 25.7846 27.1743 24.6615 26.4771 23.9692V23.9846ZM11.7125 19.7231C7.21962 19.7231 3.56332 16.0923 3.56332 11.6308C3.56332 7.16923 7.21962 3.53846 11.7125 3.53846C16.2054 3.53846 19.8617 7.16923 19.8617 11.6308C19.8617 16.0923 16.2054 19.7231 11.7125 19.7231Z" fill="black"/>
</svg>
